<svg width="56" height="56" viewBox="0 0 56 56" fill="none" xmlns="http://www.w3.org/2000/svg">
<rect y="0.000244141" width="56" height="56" rx="6" fill="white"/>
<path d="M32.19 18.0002H23.81C20.17 18.0002 18 20.1702 18 23.8102V32.1802C18 35.8302 20.17 38.0002 23.81 38.0002H32.18C35.82 38.0002 37.99 35.8302 37.99 32.1902V23.8102C38 20.1702 35.83 18.0002 32.19 18.0002ZM24.47 26.9802C24.76 26.6902 25.24 26.6902 25.53 26.9802L27.25 28.7002V22.5102C27.25 22.1002 27.59 21.7602 28 21.7602C28.41 21.7602 28.75 22.1002 28.75 22.5102V28.7002L30.47 26.9802C30.76 26.6902 31.24 26.6902 31.53 26.9802C31.82 27.2702 31.82 27.7502 31.53 28.0402L28.53 31.0402C28.46 31.1102 28.38 31.1602 28.29 31.2002C28.2 31.2402 28.1 31.2602 28 31.2602C27.9 31.2602 27.81 31.2402 27.71 31.2002C27.62 31.1602 27.54 31.1102 27.47 31.0402L24.47 28.0402C24.18 27.7502 24.18 27.2802 24.47 26.9802ZM34.24 33.2202C32.23 33.8902 30.12 34.2302 28 34.2302C25.88 34.2302 23.77 33.8902 21.76 33.2202C21.37 33.0902 21.16 32.6602 21.29 32.2702C21.42 31.8802 21.84 31.6602 22.24 31.8002C25.96 33.0402 30.05 33.0402 33.77 31.8002C34.16 31.6702 34.59 31.8802 34.72 32.2702C34.84 32.6702 34.63 33.0902 34.24 33.2202Z" fill="#142BFD"/>
</svg>
