<svg width="1920" height="744" viewBox="0 0 1920 744" fill="none" xmlns="http://www.w3.org/2000/svg">
<path d="M-807.998 1319.49V-575.497H1919.99V1319.49H-807.998Z" fill="white" fill-opacity="0.04"/>
<path d="M557.788 381.801L625.501 1319.49H762.556L558.397 381.262L557.993 379.403L620.702 -575.492H483.287L555.786 381.774L557.788 381.801Z" fill="white" fill-opacity="0.04"/>
<path d="M546.688 380.38L547.221 380.589L-714.329 1319.49H-479.486L547.984 380.883L549.511 381.485L-278.079 1319.49H-100.317L550.23 381.77L550.981 382.06L60.9578 1319.49H210.582L551.731 382.349L552.597 382.693L551.763 382.278L551.898 381.899L552.796 382.443L352.564 1319.49H489.523L553.688 381.694L553.893 381.881L553.688 381.659L553.701 381.378L554.035 381.841L553.714 381.244L553.74 381.012L554.06 381.85L553.765 380.562L553.817 379.742L554.176 379.773L553.829 379.729L554.317 379.314H553.855L554.157 378.726L553.893 378.757L554.035 376.68L553.573 378.802L553.387 378.838L553.245 378.196L553.81 376.658L553.175 377.87L553.117 377.612L553.804 376.631L553.079 377.443L552.97 376.912L553.297 376.779L552.963 376.885L552.854 376.435L553.066 376.235L552.854 376.4L343.659 -575.492H199.296L551.956 376.208L551.237 376.565L46.8365 -575.492H-117.287L550.57 376.899L549.794 377.278L-298.74 -575.492H-503.98L549.159 377.594L547.407 378.454L-743.982 -575.492H-787.532C-794.411 -570.782 -801.203 -565.982 -808 -561.195V-438.131L546.573 378.695L543.545 378.258L-808 -283.402V-148.613L539.932 377.741L-808 -28.3076V82.3531L525.465 375.678L-808 185.562V284.774L539.387 378.748L542.063 379.328L-808 381.217V477.978L542.088 380.197L540.298 380.74L-808 577.131V681.125L527.512 384.645L-808 791.496V912.537L540.869 381.668L540.921 381.663L-808 1047.7V1203.58L544.391 380.892L546.688 380.38Z" fill="white" fill-opacity="0.04"/>
<path d="M560.687 381.975L560.758 382.167L559.918 382.59L560.79 382.247L904.994 1319.49H1054.96L561.515 381.953L562.054 381.743L1216.39 1319.49H1394.46L562.753 381.467L563.324 381.24L561.887 381.244L562.33 380.977L562.144 380.767L561.643 381.151L561.707 381.253L561.252 381.431L561.156 381.253L560.424 381.258L560.662 381.881L559.808 382.514L560.687 381.975Z" fill="white" fill-opacity="0.04"/>
<path d="M1920 909.571V788.878L580.994 382.598L1920 678.512V574.683L582.636 381.149L576.316 381.181L573.891 380.445L581.526 380.984L570.343 379.362L569.041 378.974L571.319 378.074L1920 278.693V179.148L582.963 375.414L1920 75.7203V-35.4084L583.169 373.377L1920 -156.302V-291.764L570.979 377.107L567.803 377.637L1920 -447.991V-561.651C1913.43 -566.286 1906.89 -570.939 1900.24 -575.494H1841.02L565.974 377.9L565.679 377.945L564.332 377.539L1603.26 -575.494H1399.92L563.562 377.308L562.105 376.866L1219.52 -575.494H1056.18L561.4 376.577L560.912 376.345L904.243 -575.494H760.419L560.155 375.971L559.995 375.882L560.155 375.984L560.097 376.256L559.764 376.153L560.091 376.283L559.969 376.875L559.282 376.381L559.95 376.973L559.764 377.834L558.743 376.675L558.91 377.129L558.557 376.728L559.135 377.74L558.846 377.7L559.545 378.845L558.275 379.028L559.526 378.939L559.43 379.416L559.783 379.492L559.796 379.442L559.911 379.451L559.828 379.612L559.962 379.973L560.258 379.545L560.219 379.469L560.302 379.474L560.392 379.353L561.047 379.532L560.604 379.037L561.913 378.765L562.118 378.957L561.579 379.563L562.093 379.598L562.458 379.26L562.83 379.594L562.67 379.647L563.113 379.866L563.453 379.781L563.228 379.959L563.53 380.24L564.069 379.915L563.806 379.728L564.319 379.763L565.628 379.3L566.038 379.549L565.461 379.844L566.641 379.924L566.654 379.919L568.483 380.062L567.642 379.647L574.603 381.185L572.614 381.194L1920 909.571Z" fill="white" fill-opacity="0.04"/>
<path d="M1920 374.51L583.714 381.142L1920 475.968V374.51Z" fill="white" fill-opacity="0.04"/>
<path d="M1832.1 1319.49L565.834 381.222L564.627 381.231L1596.14 1319.49H1832.1Z" fill="white" fill-opacity="0.04"/>
<path d="M1920 1044.54L570.812 381.208L568.791 381.217L1920 1200V1044.54Z" fill="white" fill-opacity="0.04"/>
</svg>
