<svg width="56" height="56" viewBox="0 0 56 56" fill="none" xmlns="http://www.w3.org/2000/svg">
<rect width="56" height="56" rx="28" fill="white"/>
<path d="M37.0169 23.9917C37.4148 24.5583 36.9405 25.25 36.2482 25.25H19C18.4477 25.25 18 24.8023 18 24.25V22.42C18 19.98 19.98 18 22.42 18H24.74C26.37 18 26.88 18.53 27.53 19.4L28.93 21.26C29.24 21.67 29.28 21.72 29.86 21.72H32.65C34.4546 21.72 36.0516 22.6171 37.0169 23.9917Z" fill="#142BFD"/>
<path d="M36.9834 26.7498C37.5343 26.7498 37.9815 27.1954 37.9834 27.7464L38 32.65C38 35.6 35.6 38 32.65 38H23.35C20.4 38 18 35.6 18 32.65V27.75C18 27.1977 18.4477 26.75 19 26.75L36.9834 26.7498Z" fill="#142BFD"/>
</svg>
