<svg width="119" height="30" viewBox="0 0 119 30" fill="none" xmlns="http://www.w3.org/2000/svg">
<path d="M5.37991 11.4527C5.00336 10.6562 4.55061 10.1074 4.09786 9.75926V15.1621H6.38493C6.25941 13.8904 5.90797 12.5477 5.37991 11.4527ZM4.09786 6.77192C4.60082 6.49841 5.05357 6.04995 5.43011 5.42655C5.90797 4.60601 6.23431 3.53593 6.38493 2.39126H4.09786V6.77192ZM8.7984 16.3307V17.5002H1.76059V0.074379H8.7984V1.21994C8.7984 3.11145 8.37076 5.07755 7.44105 6.62184C7.0636 7.26922 6.56065 7.84289 5.98328 8.31532C6.61175 8.91297 7.11381 9.68378 7.49125 10.4564C8.37076 12.2227 8.7984 14.4383 8.7984 16.3307Z" fill="#0D0D12"/>
<path d="M15.9829 2.58974C15.2791 2.83839 14.7762 3.36055 14.4247 3.98395C13.8464 4.97766 13.6456 6.1987 13.6456 7.04677V17.4998H11.3083V7.04677C11.3083 5.9243 11.5594 4.25746 12.3887 2.81263C13.2691 1.3456 14.7762 0.0739403 17.1636 0.0739403H18.3453V17.4998H15.9829V2.58974Z" fill="#0D0D12"/>
<path d="M25.5305 7.04642V2.58938C24.8267 2.83892 24.3238 3.36108 23.9723 3.98448C23.3941 4.97819 23.1932 6.19924 23.1932 7.04642H25.5305ZM26.7112 0.0735855H27.8929V17.4995H25.5305V9.36063H23.1932V17.4995H20.856V7.04642C20.856 5.92395 21.107 4.25711 21.9363 2.81228C22.8158 1.34525 24.3238 0.0735855 26.7112 0.0735855Z" fill="#0D0D12"/>
<path d="M35.2537 15.1618V2.48955C34.8521 2.56326 34.5248 2.68936 34.2738 2.8128C33.8462 3.06233 33.57 3.38647 33.3683 3.78519C32.9165 4.65547 32.9165 5.80103 32.9165 7.04605V15.1618H35.2537ZM37.591 15.1618H38.7726V19.8168H36.4354V17.5H31.7348V19.8168H29.3976V15.1618H30.5541V7.04605V6.94659C30.5541 5.82412 30.5541 4.15728 31.2579 2.73998C31.6595 1.9665 32.2629 1.26851 33.1433 0.796963C34.0219 0.299664 35.1031 0.0741043 36.4354 0.0741043H37.591V15.1618Z" fill="#0D0D12"/>
<path d="M40.2696 17.4998V0.0739441H42.6069V6.5477L44.9441 4.23349V0.0739441H47.3074V17.4998H44.9441V7.51832L42.6069 9.83253V17.4998H40.2696Z" fill="#0D0D12"/>
<path d="M49.8172 17.4261V0.000240326H50.9737C51.9536 0.000240326 53.3854 0.299507 54.5922 1.16889C54.9696 1.41932 55.321 1.74345 55.6232 2.11553C55.8993 1.74345 56.2256 1.44418 56.578 1.16889C57.7838 0.273754 59.2165 0.000240326 60.373 0.000240326H61.5287V17.4261H59.1914V2.46364C58.7646 2.58974 58.337 2.76291 57.9855 3.0382C57.3822 3.48666 56.8541 4.28056 56.8541 5.82485V9.31037H54.4917V5.82485C54.4917 4.33117 53.8893 3.5355 53.2357 3.0382C52.8834 2.81264 52.5068 2.64036 52.1545 2.51426V17.4261H49.8172Z" fill="#0D0D12"/>
<path d="M64.0768 17.4998V0.0739441H66.4141V6.5477L68.7514 4.23349V0.0739441H71.1147V17.4998H68.7514V7.51832L66.4141 9.83253V17.4998H64.0768Z" fill="#0D0D12"/>
<path d="M75.962 2.34086V6.77126C76.5905 6.52172 77.0675 6.05017 77.4189 5.4028C77.8717 4.57959 78.1478 3.50951 78.2491 2.34086H75.962ZM73.6248 17.4259V7.62939e-06H80.6617V1.16955C80.6617 3.01221 80.3344 4.97832 79.48 6.52172C78.7261 7.84222 77.5704 8.86257 75.962 9.18493V17.4259H73.6248Z" fill="#0D0D12"/>
<path d="M86.6904 2.34086C86.1121 2.34086 85.8862 2.54067 85.7607 2.71383C85.5849 2.96248 85.5096 3.28662 85.5096 3.48642V13.9403C85.5096 14.1393 85.5849 14.4883 85.7607 14.7138C85.8862 14.9127 86.1121 15.1117 86.6904 15.1117C87.2435 15.1117 87.4695 14.9127 87.595 14.7138C87.7716 14.4883 87.8469 14.165 87.8469 13.9403V10.4566H90.2093V13.9403C90.2093 14.514 90.0336 15.3603 89.5055 16.0823C88.9272 16.8549 87.9975 17.4259 86.6904 17.4259C85.3581 17.4259 84.4284 16.8549 83.851 16.0823C83.323 15.3603 83.1724 14.514 83.1724 13.9403V3.48642C83.1724 2.91275 83.323 2.09221 83.851 1.36847C84.4284 0.571901 85.3581 7.62939e-06 86.6904 7.62939e-06C87.9975 7.62939e-06 88.9272 0.571901 89.5055 1.36847C90.0336 2.09221 90.2093 2.91275 90.2093 3.48642V4.65507H87.8469V3.48642C87.8469 3.28662 87.7716 2.96248 87.595 2.71383C87.4695 2.54067 87.2435 2.34086 86.6904 2.34086Z" fill="#0D0D12"/>
<path d="M92.7191 0.0739441H95.0564V6.84697C95.7602 6.59832 96.2632 6.10013 96.6406 5.45276C97.2431 4.3809 97.5443 2.86325 97.5443 1.21951V0.0739441H99.8825V1.21951C99.8825 3.06217 99.5803 5.05403 98.6757 6.59832C98.2992 7.26967 97.7962 7.84245 97.1929 8.31489C97.8464 8.91253 98.3494 9.65937 98.7259 10.4559C99.5803 12.2728 99.8825 14.4876 99.8825 16.3312V17.4998H97.5443V16.3312C97.5443 14.6874 97.2682 12.8447 96.6146 11.4523C96.1878 10.5563 95.6849 9.95864 95.0564 9.63362V17.4998H92.7191V0.0739441Z" fill="#0D0D12"/>
<path d="M107.089 7.04642V2.58938C106.385 2.83892 105.882 3.36108 105.531 3.98448C104.952 4.97819 104.752 6.19924 104.752 7.04642H107.089ZM108.27 0.0735855H109.451V17.4995H107.089V9.36063H104.752V17.4995H102.414V7.04642C102.414 5.92395 102.665 4.25711 103.495 2.81228C104.375 1.34525 105.882 0.0735855 108.27 0.0735855Z" fill="#0D0D12"/>
<path d="M116.637 6.77148V2.34108H114.35C114.451 3.50973 114.726 4.57981 115.179 5.40302C115.53 6.05039 116.006 6.52194 116.637 6.77148ZM111.96 0.000225067H119V17.4261H116.637V9.51017C115.983 9.75882 115.504 10.2073 115.152 10.7792C114.551 11.7249 114.299 12.9442 114.299 13.9397V17.4261H111.96V13.9397C111.96 12.6218 112.289 10.9541 113.144 9.5599C113.495 9.01198 113.922 8.53777 114.424 8.11596C113.898 7.69325 113.469 7.14623 113.117 6.52194C112.263 4.97765 111.96 3.01243 111.96 1.16888V0.000225067Z" fill="#0D0D12"/>
<path d="M5.33391 26.6652V26.3339C5.33391 25.9724 5.30073 25.6536 5.23528 25.3809C5.16893 25.1056 5.0712 24.8738 4.94208 24.6882C4.81297 24.5017 4.65606 24.3614 4.47046 24.2681C4.28486 24.1704 4.07236 24.1234 3.83297 24.1234C3.59447 24.1234 3.38107 24.1704 3.19547 24.2681C3.01346 24.3614 2.85745 24.5017 2.72833 24.6882C2.60281 24.8738 2.50687 25.1056 2.44052 25.3809C2.37417 25.6536 2.34189 25.9724 2.34189 26.3339V26.6652C2.34189 27.0248 2.37417 27.3437 2.44052 27.6199C2.50687 27.8952 2.6046 28.127 2.73371 28.317C2.86193 28.5036 3.01973 28.6448 3.20533 28.7425C3.39093 28.8393 3.60343 28.8872 3.84193 28.8872C4.08223 28.8872 4.29383 28.8393 4.47943 28.7425C4.66503 28.6448 4.82104 28.5036 4.94746 28.317C5.07299 28.127 5.16893 27.8952 5.23528 27.6199C5.30073 27.3437 5.33391 27.0248 5.33391 26.6652ZM6.76401 26.3428V26.6652C6.76401 27.1829 6.69408 27.6483 6.55151 28.0595C6.41074 28.4707 6.2108 28.8224 5.95257 29.1119C5.69435 29.3979 5.38591 29.619 5.02726 29.77C4.6713 29.9245 4.27679 30 3.84193 30C3.41156 30 3.01704 29.9245 2.6575 29.77C2.30244 29.619 1.994 29.3979 1.73219 29.1119C1.47127 28.8224 1.26864 28.4707 1.12339 28.0595C0.981721 27.6483 0.910889 27.1829 0.910889 26.6652V26.3428C0.910889 25.8232 0.981721 25.3596 1.12339 24.9502C1.26505 24.5381 1.465 24.1882 1.72322 23.8978C1.98414 23.6083 2.29258 23.3871 2.64853 23.2353C3.00718 23.0816 3.40169 23.0061 3.83297 23.0061C4.26783 23.0061 4.66234 23.0816 5.0174 23.2353C5.37605 23.3871 5.68538 23.6083 5.94271 23.8978C6.20452 24.1882 6.40536 24.5381 6.54703 24.9502C6.69228 25.3596 6.76401 25.8232 6.76401 26.3428Z" fill="#0D0D12"/>
<path d="M10.6322 25.5828H12.2372C12.7788 25.5828 13.2441 25.6716 13.635 25.8492C14.0251 26.0269 14.3254 26.2755 14.5361 26.5962C14.7468 26.9168 14.8526 27.2915 14.8526 27.7178C14.8526 28.0429 14.7926 28.3395 14.6733 28.6051C14.5532 28.8715 14.3783 29.1015 14.1488 29.2987C13.9219 29.4905 13.6485 29.6406 13.3275 29.7463C13.0065 29.8529 12.6434 29.907 12.2372 29.907H9.70694V23.0988H11.1281V28.8111H12.2372C12.508 28.8111 12.7312 28.7614 12.9079 28.6619C13.0836 28.5615 13.2163 28.4301 13.3042 28.2658C13.3956 28.0962 13.4414 27.9106 13.4414 27.7098C13.4414 27.5162 13.3956 27.3404 13.3042 27.185C13.2163 27.0269 13.0836 26.9008 12.9079 26.8102C12.7312 26.7214 12.508 26.6761 12.2372 26.6761H10.6322V25.5828ZM14.2107 23.0988V24.1965H11.1182V29.907H9.70694V23.0988H14.2107Z" fill="#0D0D12"/>
<path d="M18.6968 23.0989H20.1081L19.9333 26.5163C19.9091 27.027 19.8597 27.4728 19.7871 27.8503C19.7181 28.2259 19.6239 28.5474 19.5038 28.8112C19.3845 29.0741 19.2366 29.2855 19.0609 29.4471C18.8869 29.6078 18.6825 29.7251 18.4467 29.7988C18.2109 29.8698 17.9419 29.9071 17.6397 29.9071H17.29V28.8112L17.4694 28.7979C17.6236 28.7828 17.759 28.7419 17.8755 28.6771C17.9921 28.6123 18.0916 28.5128 18.1732 28.3823C18.2584 28.2508 18.3274 28.083 18.3803 27.8822C18.4368 27.6762 18.4816 27.4249 18.513 27.1282C18.5471 26.8316 18.5713 26.487 18.5839 26.0909L18.6968 23.0989ZM23.3046 29.9071H21.8879V23.0989H23.3046V29.9071ZM22.2941 24.1966H18.8762V23.0989H22.2941V24.1966Z" fill="#0D0D12"/>
<path d="M30.8165 28.4706H27.187V27.3711H30.8165V28.4706ZM30.9008 29.9076L29.0268 24.2636L28.8762 23.0993H29.8437L32.4116 29.9076H30.9008ZM29.3478 24.2636L27.4784 29.9076H25.973L28.5265 23.0993H29.485L29.3478 24.2636Z" fill="#0D0D12"/>
<path d="M38.8805 27.6488H40.2918C40.2631 28.1052 40.1358 28.5129 39.9089 28.8672C39.6857 29.2225 39.3727 29.5022 38.9702 29.7021C38.5703 29.9001 38.0888 29.9996 37.5257 29.9996C37.0855 29.9996 36.6901 29.925 36.3404 29.7749C35.9916 29.6239 35.693 29.4054 35.4438 29.1204C35.199 28.837 35.0116 28.4951 34.8825 28.0919C34.7534 27.6896 34.6888 27.2393 34.6888 26.7411V26.2686C34.6888 25.7713 34.7552 25.321 34.887 24.9178C35.0224 24.5128 35.2142 24.1682 35.4626 23.8849C35.7145 23.6007 36.0149 23.3823 36.3646 23.2286C36.7134 23.0776 37.1043 23.0021 37.5356 23.0021C38.1076 23.0021 38.5909 23.1034 38.9845 23.3085C39.3808 23.5146 39.6875 23.7979 39.9044 24.1594C40.125 24.5217 40.2577 24.9329 40.3007 25.3938H38.885C38.8697 25.1185 38.8142 24.8876 38.72 24.6976C38.6259 24.5039 38.4824 24.3592 38.2905 24.2633C38.1013 24.1638 37.8503 24.1149 37.5356 24.1149C37.2989 24.1149 37.0926 24.1576 36.9169 24.2446C36.7403 24.3316 36.5923 24.4631 36.4731 24.6425C36.3538 24.8201 36.2642 25.043 36.2041 25.3139C36.1476 25.583 36.1189 25.8983 36.1189 26.2606V26.7411C36.1189 27.0937 36.1458 27.4045 36.1996 27.6718C36.2525 27.9365 36.335 28.1612 36.4453 28.3459C36.5583 28.5253 36.7026 28.6621 36.8792 28.7571C37.0586 28.8459 37.2738 28.8912 37.5257 28.8912C37.8216 28.8912 38.0655 28.8459 38.2574 28.75C38.4492 28.6576 38.5954 28.5182 38.6958 28.3344C38.8007 28.1505 38.8617 27.9241 38.8805 27.6488Z" fill="#0D0D12"/>
<path d="M48.2004 24.197H42.593V23.0993H48.2004V24.197ZM46.0862 29.9076H44.6749V23.0993H46.0862V29.9076Z" fill="#0D0D12"/>
<path d="M51.9317 25.5828H53.5366C54.0782 25.5828 54.5435 25.6716 54.9335 25.8492C55.3245 26.0269 55.6248 26.2755 55.8355 26.5962C56.0462 26.9168 56.152 27.2915 56.152 27.7178C56.152 28.0429 56.092 28.3395 55.9727 28.6051C55.8535 28.8715 55.6786 29.1015 55.4482 29.2987C55.2213 29.4905 54.9479 29.6406 54.6269 29.7463C54.3059 29.8529 53.9428 29.907 53.5366 29.907H51.0063V23.0988H52.4275V28.8111H53.5366C53.8074 28.8111 54.0306 28.7614 54.2073 28.6619C54.383 28.5615 54.5157 28.4301 54.6036 28.2658C54.695 28.0962 54.7399 27.9106 54.7399 27.7098C54.7399 27.5162 54.695 27.3404 54.6036 27.185C54.5157 27.0269 54.383 26.9008 54.2073 26.8102C54.0306 26.7214 53.8074 26.6761 53.5366 26.6761H51.9317V25.5828Z" fill="#0D0D12"/>
</svg>
