<svg width="59" height="40" viewBox="0 0 59 40" fill="none" xmlns="http://www.w3.org/2000/svg">
<path fill-rule="evenodd" clip-rule="evenodd" d="M44.0321 26.6408C42.8127 26.6408 42.4075 26.3837 42.2691 26.2366C42.235 26.2014 42.2044 26.1572 42.1774 26.104C41.9429 25.6528 41.6284 25.1972 41.1198 25.1972C40.6112 25.1972 40.179 25.6149 40.2688 26.1193C40.3524 26.5921 40.5357 27.0848 40.9293 27.5034C41.5961 28.2135 42.6474 28.4887 44.0321 28.4887H48.3211C49.6798 28.4887 50.5919 27.9916 51.0735 27.1425C51.4752 26.436 51.4743 26.2511 51.4743 25.8667V25.8622C51.4734 25.4967 51.1778 25.1972 50.813 25.1972H50.5533C50.0447 25.1972 49.7131 25.6357 49.5289 26.113C49.5136 26.1527 49.4956 26.1897 49.4749 26.2249C49.3995 26.3593 49.1955 26.6408 48.3211 26.6408H44.0321ZM49.377 36.0743C50.1219 36.0743 50.8255 36.0698 51.4806 36.0508C52.532 36.021 53.5025 35.9579 54.3669 35.8198C55.1217 36.0725 55.6834 36.7727 56.085 37.6073C56.1794 37.8085 56.2603 38.0016 56.3285 38.1865L56.0068 38.1938L55.6977 38.2001C54.9708 38.2127 54.1746 38.2289 53.4234 38.2262C52.6677 38.2262 51.9802 38.2109 51.4662 38.1667C51.229 38.1495 51.052 38.1252 50.9325 38.1008C50.7734 37.9005 50.6135 37.6822 50.4373 37.4412L50.4355 37.4385C50.2882 37.2382 50.13 37.0226 49.9494 36.7853C49.7733 36.5534 49.5819 36.3125 49.377 36.0743ZM36.7436 25.2414C36.8748 27.4637 37.9334 29.4217 39.5275 30.7463C39.2777 30.8166 39.0503 30.9285 38.8571 31.0431C38.5264 31.2389 38.1886 31.5033 37.8606 31.7974C37.2019 32.392 36.5046 33.1861 35.8693 34.0288L35.8405 34.0658C35.252 34.0351 34.8781 33.7933 34.6131 33.5181C34.2608 33.1527 34.0469 32.6736 33.9023 32.2684L35.0453 24.7731L35.0462 24.7623C35.0606 24.6477 35.2034 24.3373 35.7165 23.906C35.9708 23.6922 36.28 23.4792 36.6277 23.2807L36.7436 25.2414ZM55.0588 24.7812V23.4467C55.1846 23.4973 55.3032 23.5469 55.4165 23.6028C55.6708 23.7219 55.8181 23.8185 55.8963 23.8907C55.9116 23.9042 55.9224 23.915 55.9287 23.9232L57.0627 30.915C57.0528 31.9057 56.8318 32.5084 56.5173 32.9018C56.192 33.3115 55.6672 33.6255 54.8099 33.8429C54.6545 33.8826 54.4909 33.9205 54.3184 33.9521L46.5284 34.2219L46.5293 34.2535C46.4413 34.2417 46.3523 34.2327 46.2607 34.2309C45.372 34.1975 44.4994 34.5548 43.6511 35.273C43.1192 35.7269 42.6348 36.3125 42.2367 36.7943C42.0894 36.9721 41.9537 37.1372 41.8324 37.2734C41.3355 37.8346 40.9724 38.1026 40.5842 38.1712H35.5188C35.6015 37.9691 35.7057 37.7426 35.8351 37.4909C36.1047 36.9648 36.4507 36.3973 36.838 35.8343L36.8919 35.8262L36.8811 35.7711C37.0285 35.56 37.1803 35.3506 37.3358 35.144C37.9235 34.3653 38.5444 33.6679 39.0908 33.1725C39.3657 32.9262 39.6021 32.7484 39.7908 32.6366C39.9274 32.5545 40.001 32.5319 40.0208 32.5256H40.0244L40.0253 32.5238H53.4971C54.0057 32.5238 54.4172 32.1105 54.4172 31.5998C54.4172 31.0891 54.0057 30.6759 53.4971 30.6759H52.3442C54.0048 29.2566 55.0588 27.1425 55.0588 24.7812ZM53.2185 21.2749H53.2311C55.5486 19.7474 56.5496 17.7371 56.6898 15.7241C56.8336 13.6786 56.0653 11.5374 54.6131 9.80413C51.7412 6.37183 46.2562 4.60785 40.3731 8.66454C39.204 9.47029 37.4355 10.3076 35.5251 10.821C34.2455 11.1621 32.85 11.3723 31.4949 11.3046C31.6854 11.5636 31.9038 11.8325 32.1455 12.0969C32.9084 12.9279 33.7019 13.5017 34.2186 13.6497L35.6653 14.0566L34.6454 15.1655C34.1862 15.6645 33.5491 16.0922 31.1409 16.6182C32.1123 18.4833 33.5626 19.6292 34.9339 20.3338C35.641 20.6966 36.3195 20.9384 36.8874 21.0963L36.8964 21.0927L36.9 21.099C37.4364 21.2479 37.8732 21.3209 38.14 21.3543L38.3557 21.3697V21.3715H38.3584L38.3575 21.3976L38.5813 25.1313C38.7646 28.2397 41.3301 30.6669 44.432 30.6669H47.357C50.5937 30.6669 53.2185 28.0331 53.2185 24.7812V21.2749ZM14.0118 29.1835H14.0154H14.0136H14.0118ZM14.1529 3.89504C15.2896 5.54443 15.4783 7.79473 14.7001 10.1253C15.3229 10.8048 15.8584 11.4499 16.27 11.9777C16.5387 12.3206 16.7588 12.622 16.9188 12.8584C16.9377 12.8846 16.9556 12.9098 16.9727 12.9387C20.4826 14.0259 23.4138 14.7911 27.4072 13.5134C27.657 13.434 27.9293 13.564 28.0156 13.8121L28.3094 14.6548C28.3966 14.9039 28.2663 15.1764 28.0156 15.2585C23.1712 16.8221 19.6092 15.7042 15.7973 14.5078C15.5107 14.4175 15.2222 14.3273 14.932 14.2371C12.7223 13.5531 10.6457 14.5691 9.41011 16.602C8.17184 18.6393 7.84205 21.6512 9.30048 24.6612L9.65722 25.3957L2.10272 30.3059L4.06076 38.2262H11.0707C10.8524 37.9601 10.5765 37.6758 10.2503 37.4015C9.2816 36.5805 7.97954 35.9227 6.58762 35.9227H5.84807L4.94498 31.8218L13.9085 27.323L14.1646 27.3419H14.1682H14.1727L14.1844 27.3446C14.1933 27.3446 14.205 27.3464 14.2185 27.3464C14.2455 27.3509 14.2805 27.3555 14.3236 27.3627C14.4099 27.3735 14.5267 27.3952 14.6651 27.4258C14.9374 27.4899 15.3121 27.6045 15.6958 27.8138C16.4937 28.2424 17.351 29.0987 17.351 30.5992V33.7653L24.1857 38.2262H29.1145C29.0966 38.1802 29.0777 38.1333 29.0579 38.0837C28.836 37.5351 28.5107 36.899 28.1108 36.3008C27.7073 35.698 27.2508 35.163 26.7746 34.7894C26.2974 34.4132 25.8598 34.2444 25.4716 34.2444C24.1776 34.2444 23.4624 34.1714 23.0104 34.0153C22.7336 33.9178 22.5548 33.7933 22.4173 33.6679L22.3778 33.6327L22.3544 33.621L19.8752 31.7379L20.6677 30.9881C21.6382 30.0704 22.6285 28.339 22.8172 26.4631C22.819 26.4469 22.8208 26.4324 22.8217 26.4144L24.6818 26.1852V26.1879C26.78 25.9515 28.437 26.1193 29.846 26.575C30.9477 26.9314 31.8633 27.4502 32.6856 28.0331L33.222 24.516C33.3308 23.6922 33.9283 23.0001 34.534 22.4894C34.6104 22.4254 34.6894 22.3622 34.7712 22.2999C34.5493 22.2034 34.3228 22.0978 34.0955 21.9787C32.1895 21.0024 30.0994 19.2664 28.9717 16.2681L28.5844 15.2377L29.6618 15.0338C30.7401 14.829 31.4931 14.6485 32.0197 14.4942C31.5776 14.1487 31.1579 13.7489 30.7904 13.3465C29.9592 12.4397 29.1891 11.3019 28.9411 10.3302L28.5376 8.75477L30.0922 9.21494C31.5336 9.63902 33.3128 9.49826 35.0507 9.03358C36.7778 8.5698 38.3503 7.81549 39.3307 7.13968C46.0234 2.52627 52.5634 4.48153 56.0221 8.61402C57.7357 10.6595 58.7089 13.2626 58.5265 15.854C58.3782 17.9708 57.4626 20.0208 55.6519 21.6954C55.846 21.7721 56.0311 21.8488 56.1991 21.9282C56.5226 22.0798 56.8587 22.2711 57.1346 22.5228C57.4185 22.7827 57.6737 23.1409 57.7438 23.6155L58.9048 30.7679V30.8428C58.9048 32.1367 58.6227 33.2185 57.955 34.0577C57.5857 34.5187 57.1301 34.8706 56.6134 35.1377C57.1229 35.6655 57.4886 36.2746 57.7438 36.8096C58.0071 37.3591 58.1814 37.8852 58.2893 38.2677C58.3432 38.4617 58.3818 38.6214 58.407 38.7387C58.4196 38.7965 58.4295 38.8416 58.4358 38.8759L58.4438 38.9165L58.4456 38.9282L58.4465 38.9327L58.4474 38.9345V38.9372L58.6316 39.9992H51.185C50.9397 39.9749 50.7051 39.9442 50.5029 39.8982C50.3843 39.872 50.2522 39.8368 50.1237 39.7809C50.015 39.7376 49.811 39.6383 49.6448 39.4407C49.4147 39.161 49.155 38.8091 48.9007 38.4644C48.7597 38.2723 48.6195 38.0837 48.4874 37.9086C48.0866 37.3835 47.6903 36.9152 47.2797 36.5787C46.8726 36.2421 46.5177 36.0905 46.1906 36.077C45.8806 36.0653 45.4402 36.1753 44.8409 36.686C44.4374 37.0271 44.1256 37.4061 43.7733 37.8346C43.6008 38.044 43.4166 38.2659 43.2081 38.5014C42.6573 39.124 41.9231 39.8278 40.8592 39.9992H33.4287V39.0951C33.4287 38.3499 33.7818 37.4557 34.1997 36.6418C34.3552 36.3405 34.5295 36.0301 34.7191 35.7188C34.1449 35.5248 33.6713 35.1982 33.2912 34.8057C32.5634 34.0504 32.2363 33.1048 32.0835 32.6447L32.0143 32.4335L32.3693 30.1101C31.4087 29.3423 30.4687 28.7179 29.2826 28.3344C28.0713 27.9429 26.5338 27.785 24.3798 28.0899C24.0195 29.4172 23.3815 30.6163 22.6563 31.534L23.3446 32.0555C23.4237 32.1033 23.4884 32.1511 23.5423 32.198C23.5747 32.226 23.6034 32.2513 23.6196 32.2657L23.6241 32.2729C23.7643 32.3171 24.2046 32.3965 25.4716 32.3965C26.4089 32.3965 27.2365 32.8026 27.9104 33.3358C28.5871 33.8655 29.1685 34.5675 29.6393 35.2712C30.1129 35.9804 30.4957 36.7284 30.7626 37.3853C31.0151 38.0061 31.211 38.6611 31.211 39.1502V39.9992H23.5217L15.5107 34.7678V30.5992C15.5107 29.9541 15.1971 29.6419 14.8251 29.4416C14.6247 29.3315 14.4144 29.2656 14.2473 29.2277L14.2356 29.2232L7.05309 32.8287L7.33704 34.119C8.98058 34.3121 10.4075 35.116 11.4373 35.9886C12.0331 36.4929 12.5246 37.0424 12.8697 37.5603C13.0413 37.8175 13.1878 38.081 13.2902 38.3408C13.3864 38.5844 13.4736 38.8948 13.4493 39.2179L13.3918 39.9992H2.60144L0 29.4704L7.31278 24.7181C5.97567 21.4004 6.37285 18.0511 7.83846 15.641C9.18007 13.4313 11.4616 11.9777 14.0675 12.1952C13.8195 11.9029 13.5472 11.5943 13.2561 11.2803C11.883 11.3615 9.9268 11.1413 8.12601 10.7209C7.08993 10.48 6.06283 10.1623 5.1858 9.77346C4.33393 9.3972 3.51441 8.90455 3.0112 8.26212C-0.0197709 4.38499 0.138384 1.88565 0.42953 0.950874L0.725167 0.000762939L1.64713 0.367996C1.70644 0.392357 1.80079 0.436569 1.92569 0.497925C2.80811 0.922001 5.23163 2.09047 7.98493 1.65556C10.6852 1.22878 12.9083 2.08866 14.1529 3.89504ZM8.27068 3.48089C10.4255 3.14254 11.8777 3.84181 12.6379 4.94621C13.2444 5.82414 13.5059 7.09547 13.2058 8.60319C11.7348 7.20825 9.94657 5.83135 8.15387 5.21509C7.90586 5.12847 7.64436 5.28096 7.57607 5.5354L7.34603 6.39799C7.27863 6.65425 7.4296 6.9132 7.67671 7.00343C8.86106 7.43924 10.1317 8.32979 11.3214 9.37916C10.4633 9.29795 9.49817 9.14366 8.54206 8.9217C7.58146 8.69703 6.67028 8.4119 5.92894 8.08437C5.16154 7.74331 4.67899 7.40224 4.45794 7.11982C2.85035 5.0626 2.32287 3.56932 2.1755 2.63635C2.50439 2.77079 2.8782 2.91155 3.2673 3.03246C4.58105 3.4457 6.35398 3.78497 8.27068 3.48089Z" fill="#0D0D12"/>
<path fill-rule="evenodd" clip-rule="evenodd" d="M15.6944 14.0781C15.4542 13.8768 15.2221 13.6819 15 13.4942L16.257 12C16.4683 12.1813 16.6958 12.3708 16.936 12.5703C18.9488 14.2522 21.8321 16.6631 23.5307 19.7222C24.4969 21.4639 25.1064 23.4541 24.9592 25.6755C24.8121 27.8968 23.9145 30.2605 22.0191 32.7548L20.4713 31.5689C22.1834 29.3149 22.8995 27.312 23.016 25.5449C23.1325 23.7805 22.6557 22.163 21.8294 20.6742C20.3214 17.9551 17.7352 15.789 15.6944 14.0781Z" fill="#0D0D12"/>
<path fill-rule="evenodd" clip-rule="evenodd" d="M43.1438 16.3623C43.7479 16.5744 44.4595 16.5744 45.0636 16.3623C45.8122 16.0994 46.7017 16.0758 47.5442 16.1511C48.8192 16.2635 50.1638 16.6143 51.1282 16.9443C51.5887 17.1003 51.8172 17.6451 51.6583 18.1402C51.4894 18.6615 50.9548 18.9316 50.4672 18.7721C49.6193 18.4937 48.4779 18.2063 47.4141 18.1111C46.6529 18.0441 46.0109 18.0839 45.563 18.2435C45.311 18.3324 45.1693 18.4339 45.0871 18.5418C45.0302 18.617 45.0031 18.6923 44.9878 18.7675C44.9535 18.9334 44.9309 19.0858 44.9146 19.2227C44.8821 19.5037 44.8659 19.7249 44.9164 20.0232C44.9228 20.0567 44.9291 20.0848 44.9345 20.1138C44.9878 20.3396 45.0781 20.481 45.1855 20.6052C45.2397 20.6687 45.2921 20.7204 45.3643 20.7911L45.3661 20.7929L45.3986 20.8237L45.4068 20.8328L45.4077 20.8346C45.4763 20.9008 45.6136 21.0377 45.7201 21.2063C45.8565 21.4203 45.9964 21.7748 45.9115 22.2117C45.8411 22.5762 45.6424 22.8292 45.5061 22.9787L45.4944 22.9914C45.4366 23.054 45.3824 23.1111 45.3309 23.1673C44.9869 23.5354 44.5859 23.9361 44.1037 23.9579C43.6215 23.9361 43.2206 23.5354 42.8765 23.1673C42.8242 23.1111 42.7709 23.054 42.7131 22.9914L42.7023 22.9787C42.565 22.8292 42.3672 22.5762 42.2968 22.2117C42.211 21.7748 42.3519 21.4203 42.4873 21.2063C42.5939 21.0377 42.7312 20.9008 42.7998 20.8346L42.8007 20.8328L42.8097 20.8237L42.8413 20.7929L42.8431 20.7911C42.9154 20.7204 42.9677 20.6687 43.0219 20.6052C43.1294 20.481 43.2197 20.3396 43.273 20.1138C43.2793 20.0848 43.2856 20.0567 43.291 20.0232C43.3416 19.7249 43.3262 19.5037 43.2937 19.2227C43.2775 19.0858 43.254 18.9334 43.2197 18.7675C43.2052 18.6923 43.1781 18.617 43.1204 18.5418C43.0382 18.4339 42.8973 18.3324 42.6454 18.2435C42.1966 18.0839 41.5545 18.0441 40.7933 18.1111C39.7305 18.2063 38.5882 18.4937 37.7403 18.7721C37.2526 18.9316 36.718 18.6615 36.5492 18.1402C36.3903 17.6451 36.6196 17.1003 37.0802 16.9443C38.0437 16.6143 39.3891 16.2635 40.6633 16.1511C41.5058 16.0758 42.3961 16.0994 43.1438 16.3623Z" fill="#0D0D12"/>
<path fill-rule="evenodd" clip-rule="evenodd" d="M52.2445 11.5319L51.2584 13.035C51.3658 13.0993 51.4534 13.161 51.5203 13.2181C51.5717 13.2643 51.5997 13.2997 51.6133 13.3223C51.6241 13.3396 51.6259 13.3486 51.6268 13.3513C51.6268 13.3532 51.6313 13.3776 51.6187 13.4311C51.6052 13.4855 51.5726 13.5744 51.4941 13.7031C51.4462 13.7792 51.3947 13.8264 51.206 13.8309C50.9658 13.8373 50.6145 13.762 50.1503 13.5934C49.7132 13.4357 49.2635 13.2244 48.8155 13.015L48.7686 12.9923L48.7388 12.9797C48.3279 12.7875 47.842 12.5617 47.4546 12.462C46.6273 12.2526 45.8561 12.569 45.3549 12.8536C45.1147 12.9905 44.9828 13.2552 44.9828 13.5327V13.6514C44.9828 13.9696 45.1526 14.2661 45.4289 14.4247L45.5111 14.4737C45.7775 14.6287 46.1045 14.5951 46.3718 14.4428C46.7556 14.2244 46.9886 14.2089 47.0726 14.2289C47.2441 14.2724 47.544 14.4057 48.0325 14.6332L48.103 14.6658C48.5329 14.868 49.0539 15.1101 49.575 15.3004C50.1133 15.4972 50.7499 15.6758 51.3649 15.6585C52.0314 15.6386 52.6997 15.3802 53.1178 14.7057C53.4267 14.2089 53.5757 13.6759 53.4764 13.1301C53.3779 12.5862 53.0609 12.1819 52.7448 11.9009C52.585 11.7576 52.4125 11.6352 52.2445 11.5319Z" fill="#0D0D12"/>
<path fill-rule="evenodd" clip-rule="evenodd" d="M48.9394 11.9289C48.6919 11.8146 47.9586 11.4874 47.6317 11.2952C47.964 10.5518 47.9369 10.3687 48.3036 9.95257C48.4851 9.75041 48.6973 9.55278 48.9394 9.4168C49.1669 9.28535 49.5553 9.13305 49.9996 9.2654C50.4881 9.41226 50.7311 9.80208 50.8313 10.1076C50.927 10.3995 50.9325 10.7086 50.9081 10.9806C50.8593 11.5354 50.7121 11.7611 50.2705 12.5018L48.9394 11.9289Z" fill="#0D0D12"/>
<path fill-rule="evenodd" clip-rule="evenodd" d="M36.2151 11.5337L37.2013 13.0368C37.0947 13.0993 37.008 13.161 36.9412 13.2199C36.8888 13.267 36.8617 13.2997 36.8482 13.3223C36.8365 13.3396 36.8347 13.3486 36.8347 13.3513C36.8338 13.3559 36.8292 13.3776 36.8419 13.4311C36.8554 13.4855 36.8879 13.5762 36.9674 13.7031C37.0144 13.7801 37.0658 13.8264 37.2546 13.8309C37.4948 13.84 37.847 13.7647 38.3103 13.5934C38.7474 13.4357 39.1971 13.2244 39.646 13.015L39.692 12.9951L39.7227 12.9797C40.1336 12.7875 40.6186 12.5617 41.0069 12.462C41.8332 12.2526 42.6054 12.569 43.1066 12.8555C43.3459 12.9923 43.4778 13.2552 43.4778 13.5327V13.6496C43.4778 13.9705 43.308 14.2661 43.0316 14.4274L42.9486 14.4737C42.683 14.6287 42.3561 14.5951 42.0897 14.4428C41.7059 14.2244 41.4729 14.2089 41.3889 14.2316C41.2164 14.2742 40.9175 14.4075 40.428 14.635L40.3585 14.6658C39.9286 14.868 39.4075 15.1101 38.8865 15.3004C38.3482 15.4972 37.7106 15.6758 37.0965 15.6585C36.4301 15.6386 35.7609 15.3802 35.3437 14.7057C35.0348 14.2089 34.8858 13.6759 34.9842 13.1301C35.0827 12.5862 35.3996 12.1819 35.7166 11.9009C35.8765 11.7594 36.0472 11.638 36.2151 11.5337Z" fill="#0D0D12"/>
<path fill-rule="evenodd" clip-rule="evenodd" d="M39.5177 11.9289C39.7651 11.8146 40.4993 11.4874 40.8253 11.2952C40.493 10.5518 40.5201 10.3687 40.1534 9.95257C39.9719 9.75041 39.7597 9.55278 39.5177 9.4168C39.291 9.28535 38.9018 9.13305 38.4574 9.2654C37.9698 9.41226 37.7259 9.80208 37.6257 10.1076C37.53 10.3995 37.5246 10.7086 37.5489 10.9806C37.5977 11.5354 37.7449 11.7611 38.1865 12.5018L39.5177 11.9289Z" fill="#0D0D12"/>
</svg>
