<svg width="48" height="48" viewBox="0 0 48 48" fill="none" xmlns="http://www.w3.org/2000/svg">
<rect width="48" height="48" rx="12" fill="white"/>
<g clip-path="url(#clip0_182_2505)">
<path d="M24 36C30.6274 36 36 30.6274 36 24C36 17.3726 30.6274 12 24 12C17.3726 12 12 17.3726 12 24C12 30.6274 17.3726 36 24 36Z" fill="url(#paint0_linear_182_2505)"/>
<path fill-rule="evenodd" clip-rule="evenodd" d="M17.432 23.8733C20.9303 22.3492 23.263 21.3444 24.4301 20.8589C27.7627 19.4728 28.4551 19.232 28.9065 19.2241C29.0058 19.2223 29.2277 19.2469 29.3715 19.3636C29.4929 19.4621 29.5263 19.5952 29.5423 19.6886C29.5583 19.782 29.5782 19.9947 29.5623 20.161C29.3818 22.0585 28.6003 26.6631 28.2028 28.7884C28.0346 29.6876 27.7034 29.9891 27.3827 30.0186C26.6858 30.0828 26.1567 29.5581 25.4817 29.1157C24.4256 28.4233 23.8289 27.9924 22.8037 27.3168C21.619 26.536 22.387 26.1069 23.0622 25.4056C23.2389 25.2221 26.3093 22.4294 26.3687 22.176C26.3762 22.1443 26.3831 22.0262 26.3129 21.9638C26.2427 21.9015 26.1392 21.9228 26.0644 21.9398C25.9585 21.9638 24.2713 23.079 21.0028 25.2853C20.5239 25.6142 20.0901 25.7744 19.7014 25.766C19.2729 25.7568 18.4488 25.5238 17.8361 25.3246C17.0846 25.0803 16.4873 24.9512 16.5393 24.5363C16.5664 24.3202 16.864 24.0992 17.432 23.8733Z" fill="white"/>
</g>
<defs>
<linearGradient id="paint0_linear_182_2505" x1="24" y1="12" x2="24" y2="35.822" gradientUnits="userSpaceOnUse">
<stop stop-color="#2AABEE"/>
<stop offset="1" stop-color="#229ED9"/>
</linearGradient>
<clipPath id="clip0_182_2505">
<rect width="24" height="24" fill="white" transform="translate(12 12)"/>
</clipPath>
</defs>
</svg>
