<svg width="48" height="48" viewBox="0 0 48 48" fill="none" xmlns="http://www.w3.org/2000/svg">
<rect width="48" height="48" rx="12" fill="white"/>
<g clip-path="url(#clip0_182_2507)">
<path d="M12 23.52C12 18.0894 12 15.3741 13.6871 13.6871C15.3741 12 18.0894 12 23.52 12H24.48C29.9106 12 32.6259 12 34.313 13.6871C36 15.3741 36 18.0894 36 23.52V24.48C36 29.9106 36 32.6259 34.313 34.313C32.6259 36 29.9106 36 24.48 36H23.52C18.0894 36 15.3741 36 13.6871 34.313C12 32.6259 12 29.9106 12 24.48V23.52Z" fill="#0077FF"/>
<path d="M24.7702 29.29C19.3002 29.29 16.1803 25.54 16.0503 19.3H18.7903C18.8803 23.88 20.9002 25.82 22.5002 26.22V19.3H25.0803V23.25C26.6603 23.08 28.3201 21.28 28.8801 19.3H31.4602C31.0302 21.74 29.2302 23.54 27.9502 24.28C29.2302 24.88 31.2803 26.45 32.0603 29.29H29.2202C28.6102 27.39 27.0903 25.92 25.0803 25.72V29.29H24.7702Z" fill="white"/>
</g>
<defs>
<clipPath id="clip0_182_2507">
<rect width="24" height="24" fill="white" transform="translate(12 12)"/>
</clipPath>
</defs>
</svg>
